Normalized EMG Linear Envelopes
nRows=177
nColumns=4

endheader
time	 med_gas_r	  soleus_r	 tib_ant_r	
2.93731	  0.061465	  0.106939	  0.025484	
2.99981	  0.062865	  0.124614	  0.025917	
3.0623	  0.064640	  0.134095	  0.026631	
3.1248	  0.067443	  0.134760	  0.027784	
3.1873	  0.071716	  0.131342	  0.029047	
3.24979	  0.076174	  0.128850	  0.029671	
3.31229	  0.078355	  0.130142	  0.029588	
3.37478	  0.077692	  0.135141	  0.029736	
3.43728	  0.076189	  0.141668	  0.030757	
3.49978	  0.075505	  0.146755	  0.032426	
3.56227	  0.075347	  0.148621	  0.034345	
3.62477	  0.074807	  0.148775	  0.036333	
3.68726	  0.073732	  0.150527	  0.038094	
3.74976	  0.072735	  0.155045	  0.039183	
3.81226	  0.072616	  0.160197	  0.039841	
3.87475	  0.074059	  0.163824	  0.041509	
3.93725	  0.077986	  0.166090	  0.046210	
3.99974	  0.085140	  0.167694	  0.055813	
4.06224	  0.094301	  0.169452	  0.071114	
4.12474	  0.102677	  0.173319	  0.089630	
4.18723	  0.109489	  0.180041	  0.105979	
4.24973	  0.116766	  0.187730	  0.117473	
4.31222	  0.125857	  0.195208	  0.126310	
4.37472	  0.137044	  0.204681	  0.134527	
4.43722	  0.153248	  0.220602	  0.142087	
4.49971	  0.178670	  0.247393	  0.150403	
4.56221	  0.211743	  0.285554	  0.162573	
4.6247	  0.246527	  0.329114	  0.181197	
4.6872	  0.282561	  0.371498	  0.208369	
4.7497	  0.321075	  0.410892	  0.243626	
4.81219	  0.354694	  0.444594	  0.280316	
4.87469	  0.377866	  0.465870	  0.308479	
4.93718	  0.395317	  0.471404	  0.323218	
4.99968	  0.409689	  0.464625	  0.329163	
5.06218	  0.421093	  0.452739	  0.337013	
5.12467	  0.434025	  0.446190	  0.354534	
5.18717	  0.448199	  0.453498	  0.378984	
5.24966	  0.457526	  0.472999	  0.401870	
5.31216	  0.460939	  0.497315	  0.420623	
5.37466	  0.462130	  0.522958	  0.436016	
5.43715	  0.463203	  0.549524	  0.443916	
5.49965	  0.462654	  0.576275	  0.445408	
5.56214	  0.457296	  0.601294	  0.454530	
5.62464	  0.447664	  0.617576	  0.480894	
5.68714	  0.444182	  0.615809	  0.517942	
5.74963	  0.459530	  0.598971	  0.555724	
5.81213	  0.488301	  0.586717	  0.590707	
5.87462	  0.510069	  0.597117	  0.620319	
5.93712	  0.515236	  0.627476	  0.635961	
5.99962	  0.510564	  0.659462	  0.625507	
6.06211	  0.502973	  0.680806	  0.586950	
6.12461	  0.491017	  0.693715	  0.536535	
6.1871	  0.472410	  0.703128	  0.499201	
6.2496	  0.453835	  0.706754	  0.494283	
6.3121	  0.446792	  0.700379	  0.526238	
6.37459	  0.455559	  0.687098	  0.582862	
6.43709	  0.474957	  0.676563	  0.642567	
6.49958	  0.493662	  0.676457	  0.680715	
6.56208	  0.498692	  0.685193	  0.675430	
6.62458	  0.488449	  0.694439	  0.624244	
6.68707	  0.477451	  0.700600	  0.553499	
6.74957	  0.479368	  0.708059	  0.499644	
6.81206	  0.492340	  0.719765	  0.484558	
6.87456	  0.504335	  0.730297	  0.509091	
6.93706	  0.505482	  0.727001	  0.558633	
6.99955	  0.493718	  0.698700	  0.612060	
7.06205	  0.475388	  0.649586	  0.651329	
7.12454	  0.462168	  0.601563	  0.667005	
7.18704	  0.463117	  0.578316	  0.658460	
7.24954	  0.476636	  0.589263	  0.633866	
7.31203	  0.491569	  0.624726	  0.610112	
7.37453	  0.497532	  0.660877	  0.603179	
7.43702	  0.491579	  0.676568	  0.617084	
7.49952	  0.478827	  0.671527	  0.646761	
7.56202	  0.469711	  0.662279	  0.681907	
7.62451	  0.471238	  0.659396	  0.705745	
7.68701	  0.481539	  0.659630	  0.703200	
7.7495	  0.493751	  0.662075	  0.673587	
7.812	  0.503346	  0.676671	  0.633696	
7.8745	  0.512793	  0.709661	  0.606927	
7.93699	  0.526601	  0.752523	  0.606670	
7.99949	  0.540853	  0.790934	  0.631727	
8.06198	  0.543151	  0.815791	  0.672122	
8.12448	  0.527663	  0.822946	  0.713863	
8.18698	  0.505640	  0.811283	  0.746693	
8.24947	  0.493419	  0.784686	  0.769129	
8.31197	  0.495643	  0.750265	  0.779457	
8.37446	  0.506279	  0.714700	  0.768408	
8.43696	  0.517907	  0.685630	  0.731862	
8.49946	  0.524673	  0.670118	  0.684990	
8.56195	  0.523043	  0.667242	  0.649525	
8.62445	  0.516183	  0.670276	  0.631821	
8.68694	  0.513040	  0.677316	  0.624464	
8.74944	  0.516305	  0.688149	  0.620385	
8.81194	  0.517109	  0.694412	  0.619808	
8.87443	  0.507332	  0.687324	  0.629238	
8.93693	  0.488856	  0.670772	  0.649582	
8.99942	  0.468329	  0.658556	  0.667255	
9.06192	  0.449928	  0.658246	  0.668650	
9.12442	  0.433444	  0.658155	  0.657658	
9.18691	  0.418923	  0.642253	  0.647290	
9.24941	  0.409372	  0.617814	  0.640104	
9.3119	  0.406990	  0.607048	  0.628605	
9.3744	  0.412272	  0.616293	  0.613669	
9.4369	  0.419761	  0.631590	  0.610195	
9.49939	  0.416633	  0.635470	  0.627939	
9.56189	  0.395350	  0.617485	  0.653841	
9.62438	  0.356603	  0.577613	  0.660501	
9.68688	  0.304298	  0.527893	  0.632538	
9.74938	  0.252979	  0.485905	  0.583496	
9.81187	  0.225893	  0.460269	  0.544012	
9.87437	  0.229933	  0.444072	  0.530953	
9.93686	  0.242919	  0.424194	  0.530110	
9.99936	  0.242784	  0.394282	  0.514370	
10.0619	  0.238140	  0.357963	  0.476064	
10.1244	  0.247096	  0.322952	  0.431586	
10.1868	  0.262740	  0.295626	  0.400860	
10.2493	  0.265821	  0.279682	  0.393111	
10.3118	  0.256261	  0.274954	  0.402320	
10.3743	  0.248790	  0.277324	  0.409030	
10.4368	  0.248784	  0.282619	  0.396787	
10.4993	  0.253130	  0.289266	  0.368900	
10.5618	  0.262572	  0.296444	  0.340925	
10.6243	  0.274086	  0.302681	  0.320749	
10.6868	  0.276948	  0.307572	  0.304905	
10.7493	  0.271110	  0.312700	  0.289924	
10.8118	  0.269168	  0.317572	  0.278493	
10.8743	  0.271081	  0.316550	  0.273225	
10.9368	  0.264092	  0.305167	  0.270432	
10.9993	  0.251092	  0.286742	  0.264676	
11.0618	  0.247151	  0.268604	  0.254726	
11.1243	  0.251606	  0.255347	  0.241138	
11.1868	  0.253859	  0.247146	  0.223235	
11.2493	  0.254652	  0.242516	  0.202174	
11.3118	  0.257910	  0.243020	  0.184661	
11.3743	  0.260123	  0.252608	  0.179906	
11.4368	  0.259422	  0.269502	  0.189810	
11.4993	  0.255873	  0.284356	  0.204241	
11.5618	  0.248272	  0.289619	  0.210674	
11.6243	  0.243127	  0.284819	  0.205643	
11.6868	  0.248102	  0.272962	  0.194006	
11.7492	  0.256511	  0.259396	  0.182526	
11.8117	  0.258922	  0.252747	  0.175408	
11.8742	  0.256873	  0.258448	  0.172477	
11.9367	  0.253458	  0.272089	  0.170995	
11.9992	  0.251065	  0.285843	  0.168503	
12.0617	  0.254802	  0.298360	  0.164885	
12.1242	  0.262700	  0.310318	  0.163323	
12.1867	  0.267693	  0.315181	  0.166329	
12.2492	  0.269206	  0.307057	  0.171101	
12.3117	  0.269107	  0.292835	  0.172850	
12.3742	  0.268405	  0.283831	  0.170969	
12.4367	  0.270206	  0.282923	  0.169299	
12.4992	  0.275246	  0.286554	  0.171732	
12.5617	  0.280394	  0.289841	  0.178242	
12.6242	  0.283422	  0.288879	  0.185078	
12.6867	  0.284674	  0.284016	  0.187879	
12.7492	  0.284119	  0.280260	  0.184493	
12.8117	  0.279652	  0.281855	  0.177067	
12.8742	  0.272860	  0.285954	  0.169930	
12.9367	  0.268287	  0.285617	  0.164095	
12.9992	  0.264320	  0.278551	  0.158114	
13.0617	  0.256990	  0.266740	  0.153138	
13.1242	  0.247187	  0.252469	  0.151593	
13.1867	  0.237823	  0.240857	  0.153127	
13.2492	  0.230978	  0.238365	  0.155930	
13.3116	  0.227521	  0.245793	  0.160250	
13.3741	  0.229387	  0.258035	  0.167022	
13.4366	  0.238597	  0.267775	  0.173502	
13.4991	  0.251652	  0.268394	  0.175599	
13.5616	  0.263559	  0.257973	  0.173566	
13.6241	  0.272152	  0.240693	  0.168899	
13.6866	  0.275199	  0.224067	  0.160055	
13.7491	  0.271911	  0.214149	  0.146556	
13.8116	  0.260793	  0.212601	  0.130995	
13.8741	  0.236271	  0.218542	  0.115170	
13.9366	  0.198851	  0.229458	  0.099147	
